Land_normalized_Precision Landing15_filtered_grf
version=1
nRows=10
nColumns=37
inDegrees=yes
endheader
time		1_ground_force_vx		1_ground_force_vy		1_ground_force_vz		1_ground_force_px		1_ground_force_py		1_ground_force_pz		1_ground_torque_x		1_ground_torque_y		1_ground_torque_z		2_ground_force_vx		2_ground_force_vy		2_ground_force_vz		2_ground_force_px		2_ground_force_py		2_ground_force_pz		2_ground_torque_x		2_ground_torque_y		2_ground_torque_z		3_ground_force_vx		3_ground_force_vy		3_ground_force_vz		3_ground_force_px		3_ground_force_py		3_ground_force_pz		3_ground_torque_x		3_ground_torque_y		3_ground_torque_z		4_ground_force_vx		4_ground_force_vy		4_ground_force_vz		4_ground_force_px		4_ground_force_py		4_ground_force_pz		4_ground_torque_x		4_ground_torque_y		4_ground_torque_z		
1.183667		-11.356635		747.635048		104.059600		0.111096		0.000000		0.293548		-0.170375		11.216294		1.561136		20.449146		600.274641		42.453110		-0.137305		0.000000		0.313964		0.292455		8.584781		0.607198		5.297365		-0.549726		-1.204955		0.353672		1.255232		1.891385		0.001043		-0.000108		-0.000237		-18.879663		0.919089		-2.415937		-0.288799		1.264833		1.901176		0.007495		-0.000365		0.000959		
1.187025		-12.405182		728.179574		105.176344		0.111764		0.000000		0.292966		-0.182694		10.724055		1.548953		19.948509		573.933020		46.416376		-0.137413		0.000000		0.312430		0.321342		9.245214		0.747709		5.251521		-0.710458		-1.137825		0.353700		1.255216		1.891350		-0.000345		0.000047		0.000074		-18.766233		0.839230		-2.371925		-0.288802		1.264833		1.901135		0.011768		-0.000526		0.001487		
1.190384		-13.774689		710.566216		107.081615		0.112557		0.000000		0.292618		-0.198293		10.229047		1.541501		19.762063		550.932773		49.378882		-0.137605		0.000000		0.311110		0.349760		9.750601		0.873950		5.234847		-0.897069		-0.976767		0.353725		1.255203		1.891312		-0.001573		0.000269		0.000294		-18.705252		0.753217		-2.393687		-0.288809		1.264837		1.901101		0.016124		-0.000650		0.002063		
1.193742		-15.611288		695.855113		109.665101		0.113495		0.000000		0.292548		-0.218943		9.759347		1.538039		19.915829		531.629258		51.319151		-0.137859		0.000000		0.310045		0.378402		10.100830		0.975072		5.248432		-1.057728		-0.761110		0.353749		1.255196		1.891273		-0.001527		0.000308		0.000222		-18.656092		0.693471		-2.436845		-0.288814		1.264844		1.901077		0.019533		-0.000726		0.002551		
1.197101		-18.092779		684.699295		112.617069		0.114515		0.000000		0.292692		-0.246331		9.322272		1.533289		20.371137		516.096513		52.384826		-0.138150		0.000000		0.309237		0.407356		10.320152		1.047522		5.269089		-1.137513		-0.554980		0.353770		1.255190		1.891234		0.000087		-0.000019		-0.000009		-18.575782		0.675464		-2.455295		-0.288820		1.264852		1.901058		0.021111		-0.000768		0.002791		
1.200460		-21.343900		677.368311		115.480762		0.115534		0.000000		0.292956		-0.280320		8.896333		1.516684		21.021283		504.221325		52.758639		-0.138449		0.000000		0.308673		0.434971		10.433284		1.091676		5.258859		-1.103252		-0.411794		0.353784		1.255185		1.891197		0.002296		-0.000481		-0.000180		-18.453505		0.687113		-2.431549		-0.288823		1.264858		1.901044		0.020581		-0.000766		0.002712		
1.203818		-25.319279		673.799683		117.771334		0.116500		0.000000		0.293300		-0.318264		8.470041		1.480445		21.759303		495.784941		52.573981		-0.138744		0.000000		0.308339		0.458872		10.455339		1.108705		5.185153		-0.960039		-0.346805		0.353784		1.255178		1.891166		0.003786		-0.000701		-0.000253		-18.323058		0.696562		-2.386961		-0.288823		1.264860		1.901032		0.018454		-0.000701		0.002404		
1.207177		-29.757999		673.586943		119.183645		0.117396		0.000000		0.293723		-0.356863		8.078058		1.429320		22.523131		490.463439		51.915399		-0.139034		0.000000		0.308224		0.477400		10.395845		1.100397		5.042846		-0.751358		-0.337253		0.353767		1.255170		1.891143		0.004151		-0.000618		-0.000278		-18.243299		0.677779		-2.365692		-0.288821		1.264860		1.901019		0.015711		-0.000584		0.002038		
1.210535		-34.256450		676.011526		119.709305		0.118200		0.000000		0.294217		-0.393199		7.759376		1.374044		23.270170		487.847968		50.849775		-0.139308		0.000000		0.308295		0.489572		10.263633		1.069808		4.862004		-0.536087		-0.350603		0.353725		1.255161		1.891125		0.007755		0.009857		0.036103		-18.260999		0.630828		-2.402889		-0.288815		1.264857		1.901007		0.013133		-0.000454		0.001728		
1.213894		-38.360126		680.065145		119.564989		0.118871		0.000000		0.294724		-0.423479		7.507713		1.319963		23.924816		487.463445		49.447399		-0.139538		0.000000		0.308497		0.494089		10.066993		1.021180		4.702632		-0.361582		-0.369621		0.353664		1.255150		1.891114		0.007990		0.014984		0.035260		-18.383241		0.579023		-2.499479		-0.288808		1.264854		1.900999		0.010893		-0.000343		0.001481		
